<svg xmlns="http://www.w3.org/2000/svg" width="439" height="439" viewBox="0 0 438.536 438.536"><path d="M414.4 24.123C398.333 8.042 378.963 0 356.315 0H82.228C59.58 0 40.2 8.042 24.126 24.123S.003 59.576.003 82.225V356.31c0 22.647 8.042 42.018 24.123 58.102s35.454 24.126 58.102 24.126h274.084c22.648 0 42.018-8.042 58.095-24.126 16.084-16.084 24.126-35.454 24.126-58.102V82.225c-.001-22.65-8.043-42.02-24.123-58.102zM133.618 367.157H67.666v-198.14h65.952v198.14zm-5.992-234.825c-6.85 6.567-15.893 9.85-27.124 9.85h-.288c-10.848 0-19.648-3.284-26.407-9.85s-10.138-14.703-10.138-24.4c0-9.897 3.476-18.083 10.42-24.556s15.942-9.708 26.98-9.708 19.9 3.237 26.553 9.708 10.088 14.66 10.277 24.556c-.001 9.703-3.423 17.84-10.274 24.4zm243.247 234.825H304.92v-105.92c0-29.88-11.036-44.823-33.116-44.823-8.374 0-15.42 2.33-21.128 6.995-5.715 4.66-9.996 10.324-12.847 16.99-1.335 3.422-2 8.75-2 15.98v110.775H169.88V169.014h65.952v27.974c13.867-21.68 33.558-32.544 59.1-32.544 22.84 0 41.2 7.52 55.104 22.554s20.84 37.214 20.84 66.52l-.004 113.64z"/></svg>