<svg xmlns="http://www.w3.org/2000/svg" viewBox="0 0 612 612"><path d="M612 116.258c-22.525 9.98-46.694 16.75-72.088 19.772 25.93-15.527 45.777-40.155 55.184-69.41-24.322 14.38-51.17 24.82-79.775 30.48-22.907-24.437-55.5-39.658-91.63-39.658-69.334 0-125.55 56.217-125.55 125.513 0 9.828 1.11 19.427 3.25 28.606-104.326-5.24-196.835-55.223-258.75-131.174-10.823 18.5-16.98 40.078-16.98 63.1 0 43.56 22.18 81.993 55.835 104.48-20.575-.688-39.926-6.348-56.867-15.756v1.568c0 60.806 43.29 111.554 100.693 123.104-10.517 2.83-21.607 4.398-33.08 4.398a120.5 120.5 0 0 1-23.634-2.333c15.985 49.907 62.336 86.2 117.253 87.194-42.947 33.654-97.1 53.655-155.916 53.655-10.134 0-20.116-.612-29.944-1.72 55.567 35.68 121.536 56.485 192.438 56.485 230.948 0 357.188-191.29 357.188-357.188l-.42-16.253c24.666-17.593 46.005-39.697 62.794-64.86z" fill="#010002"/></svg>